<?xml version="1.0" encoding="UTF-8"?>
<svg width="1200pt" height="1200pt" version="1.1" viewBox="0 0 1200 1200" xmlns="http://www.w3.org/2000/svg">
 <g>
  <path fill="white" d="m563.33 411.07c-6.4961 0.011719-11.762 5.2656-11.785 11.762v295.22h377.88v-295.22c-0.011719-3.1328-1.2656-6.1289-3.4883-8.3359s-5.2344-3.4375-8.3633-3.4258zm11.855 23.617h330.6v243.1l-156.99-156.99v0.003906c-2.2344-2.2461-5.2734-3.5-8.4414-3.4844-3.0781 0.050781-6.0156 1.3008-8.1875 3.4844l-156.99 156.99zm-23.641 306.98v35.496c0.023437 6.4922 5.2891 11.75 11.785 11.762h354.24c0.39453 0.003906 0.78516-0.011719 1.1797-0.046875 6.043-0.57812 10.66-5.6445 10.68-11.715v-35.492z"/>
  <path fill="white" d="m399.1 423.45c-3.082 0.046875-6.0195 1.2969-8.1914 3.4844l-116.89 116.89c-3.3672 3.3789-4.3672 8.4531-2.5352 12.859 1.8281 4.4062 6.1328 7.2773 10.902 7.2773h57.793v200.74c-0.015625 3.1445 1.2305 6.168 3.457 8.3945 2.2266 2.2266 5.2461 3.4727 8.3945 3.457h94.402c3.1484 0.015625 6.1719-1.2305 8.3945-3.457 2.2266-2.2266 3.4727-5.25 3.4609-8.3945v-200.74h57.879-0.003906c4.7578-0.035156 9.0273-2.918 10.836-7.3164 1.8086-4.3984 0.80078-9.4531-2.5547-12.82l-116.8-116.89c-2.2578-2.2695-5.3398-3.5312-8.543-3.4844z"/>
  <path fill="white" d="m834.93 458.32c-25.945 0-47.242 21.297-47.242 47.242s21.297 47.242 47.242 47.242c25.945 0 47.242-21.297 47.242-47.242s-21.297-47.242-47.242-47.242z"/>
 </g>
</svg>
